# xmcd
#
# Track frame offsets: 
#        182
#        12865
#        26017
#        40405
#        52252
#        64230
#        76537
#        88527
#        99855
#        110727
#        121335
#        135597
#        149690
#        163580
#        175595
#
# Disc length: 2623 seconds
#
# Revision: 3
# Processed by: cddbd v1.5.2PL0 Copyright (c) Steve Scherf et al.
# Submitted via: ExactAudioCopyFreeDBPlugin 1.0
#
DISCID=c40a3d0f
DTITLE=Various Artist - Elemental Rhythm and Blues - Shimmies and Shakes
DYEAR=1996
DGENRE=R&B
TTITLE0=Aretha Franklin - Chain Of Fools
TTITLE1=Booker T. and the MG's - Green Onions
TTITLE2=Ray Charles - What'd I Say (Part 1)
TTITLE3=The Drifters - Sweets For My Sweet
TTITLE4=Professor Longhair - Tipitina
TTITLE5=Jackie Wilson - Reet Petitie (The Finest Girl You Ever Want To
TTITLE5=Meet)
TTITLE6=Sam and Dave - Hold On! I'm A Comin'
TTITLE7=Huey (Piano) Smith and The Clowns - Don't You Just Know It
TTITLE8=Don Covay and the Goodtimers - Mercy, Mercy
TTITLE9=The Cadillacs - Speedoo
TTITLE10=La Vern Baker and The Gliders - Tweedlee Dee
TTITLE11=Wilson Pickett - Mustang Sally
TTITLE12=Eddie Floyd - Knock On Wood
TTITLE13=Mar-Keys - Last Night
TTITLE14=Otis Redding - Try A Little Tenderness (Live)
EXTD=
EXTT0=
EXTT1=
EXTT2=
EXTT3=
EXTT4=
EXTT5=
EXTT6=
EXTT7=
EXTT8=
EXTT9=
EXTT10=
EXTT11=
EXTT12=
EXTT13=
EXTT14=
PLAYORDER=
